# File created by Blade
# Date/Time:  Fri Jan 16 14:33:41 2015
# Frame Rate: 120.000 fps
#------------------------------------------------------
:FULLY-SPECIFIED
:DEGREES
1629
root 19.059201 35.741399 -23.629100 -171.726249 -12.583875 -179.650310
Spine -16.383633 -6.366930 -2.069921
Head 9.845474 -13.457309 1.867339
LeftShoulder -12.419165 -14.610715 -3.538951
LeftArm -12.883990 11.375231 -72.470997
LeftForeArm 1.731065 0.000000 7.784289
LeftHand -1.429613 -0.000000 0.729186
LeftHandThumb1 -26.253704 0.000000 33.147579
RightShoulder -11.297013 -4.888123 3.649436
RightArm 16.400913 60.709379 53.108818
RightForeArm -13.531677 -0.000000 38.445183
RightHand 10.170274 -0.000000 -19.618076
RightHandThumb1 -24.326973 -0.000000 -32.862282
LeftUpLeg -2.723627 3.594315 0.645203
LeftLeg -5.164794 -0.000000 0.000000
LeftFoot -17.346236 22.413358 -12.952092
LeftToeBase 26.117903 -0.000000 -0.000000
RightUpLeg -1.199315 -18.349143 3.725845
RightLeg -3.756153 -0.000000 0.000000
RightFoot -21.500899 -27.446928 17.303663
RightToeBase 22.133151 -0.000000 -0.000000
1630
root 19.059174 35.739947 -23.634547 -171.709841 -12.543328 -179.644390
Spine -16.405575 -6.384570 -2.034557
Head 9.803099 -13.373580 1.880410
LeftShoulder -12.451831 -14.597009 -3.521436
LeftArm -12.869649 11.370062 -72.469722
LeftForeArm 1.769111 0.000000 7.817375
LeftHand -1.469078 -0.000000 0.732359
LeftHandThumb1 -26.253704 0.000000 33.147579
RightShoulder -11.363160 -5.038835 3.800498
RightArm 16.042444 59.975682 53.297745
RightForeArm -13.054860 -0.000000 36.634710
RightHand 10.354729 -0.000000 -19.667242
RightHandThumb1 -24.326973 -0.000000 -32.862282
LeftUpLeg -2.715972 3.660300 0.643102
LeftLeg -5.189446 -0.000000 0.000000
LeftFoot -17.349126 22.410724 -12.917886
LeftToeBase 26.130924 -0.000000 -0.000000
RightUpLeg -1.201163 -18.302377 3.730408
RightLeg -3.774775 -0.000000 0.000000
RightFoot -21.493234 -27.464629 17.271558
RightToeBase 22.181521 -0.000000 -0.000000
1631
root 19.060513 35.738718 -23.638152 -171.695248 -12.537479 -179.644218
Spine -16.410893 -6.429306 -2.010750
Head 9.735924 -13.307375 1.917801
LeftShoulder -12.456103 -14.598910 -3.508125
LeftArm -12.859575 11.418015 -72.469125
LeftForeArm 1.769561 -0.000000 7.824699
LeftHand -1.462420 -0.000000 0.634788
LeftHandThumb1 -26.253704 0.000000 33.147579
RightShoulder -11.421991 -5.103871 3.930862
RightArm 15.590309 59.234651 53.442366
RightForeArm -12.667785 -0.000000 34.812678
RightHand 10.660354 -0.000000 -19.481570
RightHandThumb1 -24.326973 -0.000000 -32.862282
LeftUpLeg -2.721647 3.673525 0.642957
LeftLeg -5.195660 -0.000000 0.000000
LeftFoot -17.357919 22.408781 -12.929128
LeftToeBase 26.095269 -0.000000 -0.000000
RightUpLeg -1.204836 -18.289760 3.735761
RightLeg -3.786099 -0.000000 0.000000
RightFoot -21.496189 -27.466932 17.272567
RightToeBase 22.123396 -0.000000 -0.000000
1632
root 19.062684 35.737788 -23.641499 -171.689234 -12.539877 -179.635367
Spine -16.401426 -6.481572 -1.969013
Head 9.661503 -13.233420 1.931888
LeftShoulder -12.453946 -14.591443 -3.524132
LeftArm -12.838718 11.450248 -72.439685
LeftForeArm 1.722502 -0.000000 7.852611
LeftHand -1.411897 -0.000000 0.632814
LeftHandThumb1 -26.253704 0.000000 33.147579
RightShoulder -11.502285 -5.201861 4.081786
RightArm 15.328243 58.469962 53.730078
RightForeArm -11.920254 0.000000 32.999417
RightHand 10.851430 -0.000000 -19.514355
RightHandThumb1 -24.326973 -0.000000 -32.862282
LeftUpLeg -2.728455 3.699645 0.653429
LeftLeg -5.190762 -0.000000 0.000000
LeftFoot -17.366975 22.393561 -12.898156
LeftToeBase 26.149348 -0.000000 -0.000000
RightUpLeg -1.197983 -18.284428 3.749831
RightLeg -3.804068 -0.000000 0.000000
RightFoot -21.490601 -27.466131 17.266668
RightToeBase 22.120349 -0.000000 -0.000000
